/* XPM */
static char * hide_inactive_xpm[] = {
"16 24 5 1",
" 	c None",
".	c #FFFFFF",
"+	c #000000",
"@	c #D4D0C8",
"#	c #808080",
"                ",
"                ",
"                ",
"                ",
"                ",
"                ",
"...............+",
".@@@@@@@@@@@@@#+",
".@@@@@@@@@@@@@#+",
".@@@@@@@@@@@@@#+",
".@@@@@@@@@@@@@#+",
".@@@@@@@@@@@@@#+",
".@@@@@@@@@@@@@#+",
".@@@@@@@@@@@@@#+",
".@@@@@@@@@@@@@#+",
".@@@++++++@@@@#+",
".@@@++++++@@@@#+",
".@@@@@@@@@@@@@#+",
".##############+",
"++++++++++++++++",
"                ",
"                ",
"                ",
"                "};
