/* XPM */
static char * close_inactive_xpm[] = {
"36 48 6 1",
" 	c None",
".	c #FFFFFF",
"+	c #000000",
"@	c #D4D0C8",
"#	c #808080",
"$	c #FF00FF",
"                                    ",
"                                    ",
"                                    ",
"                                    ",
"                                    ",
"                                    ",
"                                    ",
"                                    ",
"                                    ",
"                                    ",
"                                    ",
"                                    ",
"    ..............................++",
"    ..............................++",
"    ..@@@@@@@@@@@@@@@@@@@@@@@@@@##++",
"    ..@@@@@@@@@@@@@@@@@@@@@@@@@@##++",
"    ..@@@@@@@@@@@@@@@@@@@@@@@@@@##++",
"    ..@@@@@@@@@@@@@@@@@@@@@@@@@@##++",
"    ..@@@@@@$$$$@@@@@@@@$$$$@@@@##++",
"    ..@@@@@@$$$$@@@@@@@@$$$$@@@@##++",
"    ..@@@@@@@@$$$$@@@@$$$$@@@@@@##++",
"    ..@@@@@@@@$$$$@@@@$$$$@@@@@@##++",
"    ..@@@@@@@@@@$$$$$$$$@@@@@@@@##++",
"    ..@@@@@@@@@@$$$$$$$$@@@@@@@@##++",
"    ..@@@@@@@@@@@@$$$$@@@@@@@@@@##++",
"    ..@@@@@@@@@@@@$$$$@@@@@@@@@@##++",
"    ..@@@@@@@@@@$$$$$$$$@@@@@@@@##++",
"    ..@@@@@@@@@@$$$$$$$$@@@@@@@@##++",
"    ..@@@@@@@@$$$$@@@@$$$$@@@@@@##++",
"    ..@@@@@@@@$$$$@@@@$$$$@@@@@@##++",
"    ..@@@@@@$$$$@@@@@@@@$$$$@@@@##++",
"    ..@@@@@@$$$$@@@@@@@@$$$$@@@@##++",
"    ..@@@@@@@@@@@@@@@@@@@@@@@@@@##++",
"    ..@@@@@@@@@@@@@@@@@@@@@@@@@@##++",
"    ..@@@@@@@@@@@@@@@@@@@@@@@@@@##++",
"    ..@@@@@@@@@@@@@@@@@@@@@@@@@@##++",
"    ..############################++",
"    ..############################++",
"    ++++++++++++++++++++++++++++++++",
"    ++++++++++++++++++++++++++++++++",
"                                    ",
"                                    ",
"                                    ",
"                                    ",
"                                    ",
"                                    ",
"                                    ",
"                                    "};
